<?xml version="1.0" encoding="utf-8"?>
<!-- Generator: Adobe Illustrator 19.0.0, SVG Export Plug-In . SVG Version: 6.00 Build 0)  -->
<svg version="1.1" id="Capa_1" xmlns="http://www.w3.org/2000/svg" xmlns:xlink="http://www.w3.org/1999/xlink" x="0px" y="0px"
	 viewBox="0 0 300 300" style="enable-background:new 0 0 300 300;" xml:space="preserve">
<style type="text/css">
	.st0{fill:#F2C244;}
	.st1{fill:#999999;stroke:#999999;stroke-width:1.0934;stroke-linecap:round;stroke-linejoin:round;stroke-miterlimit:10;}
	.st2{fill:none;stroke:#FFFFFF;stroke-width:0.8798;stroke-linecap:round;stroke-miterlimit:10;}
</style>
<g id="XMLID_191_">
	<circle id="XMLID_229_" class="st0" cx="84.9" cy="83.8" r="74.9"/>
	<path id="XMLID_228_" class="st1" d="M290,82.8c0,41.4-33.5,74.9-74.9,74.9c-41.4,0-74.9-33.5-74.9-74.9s33.5-74.9,74.9-74.9
		C256.5,7.9,290,41.5,290,82.8z"/>
	<circle id="XMLID_227_" class="st1" cx="84.9" cy="217.2" r="74.9"/>
	<path id="XMLID_226_" class="st0" d="M290,217.2c0,41.4-33.5,74.9-74.9,74.9c-41.4,0-74.9-33.5-74.9-74.9
		c0-41.4,33.5-74.9,74.9-74.9C256.5,142.3,290,175.8,290,217.2z"/>
	<g id="XMLID_220_">
		<line id="XMLID_224_" class="st2" x1="37.6" y1="51.7" x2="132.1" y2="51.7"/>
		<line id="XMLID_223_" class="st2" x1="37.6" y1="114" x2="132.1" y2="114"/>
	</g>
	<g id="XMLID_212_">
		<line id="XMLID_216_" class="st2" x1="167.9" y1="186" x2="262.4" y2="186"/>
		<line id="XMLID_215_" class="st2" x1="167.9" y1="248.3" x2="262.4" y2="248.3"/>
	</g>
	<g id="XMLID_203_">
		<line id="XMLID_211_" class="st2" x1="167.9" y1="51.7" x2="262.4" y2="51.7"/>
		<line id="XMLID_208_" class="st2" x1="167.9" y1="114" x2="262.4" y2="114"/>
	</g>
	<g id="XMLID_192_">
		<line id="XMLID_200_" class="st2" x1="37.6" y1="186" x2="132.1" y2="186"/>
		<line id="XMLID_199_" class="st2" x1="37.6" y1="248.3" x2="132.1" y2="248.3"/>
	</g>
</g>
</svg>
