<?xml version="1.0" encoding="utf-8"?>
<!-- Generator: Adobe Illustrator 19.0.0, SVG Export Plug-In . SVG Version: 6.00 Build 0)  -->
<svg version="1.1" id="Capa_1" xmlns="http://www.w3.org/2000/svg" xmlns:xlink="http://www.w3.org/1999/xlink" x="0px" y="0px"
	 viewBox="0 0 150 150" style="enable-background:new 0 0 150 150;" xml:space="preserve">
<style type="text/css">
	.st0{fill:#F2C244;}
	.st1{fill:#F2C244;stroke:#FFFFFF;stroke-miterlimit:10;}
</style>
<g id="XMLID_241_">
	<path id="XMLID_253_" class="st0" d="M89.3,87.3c-0.8,1.2-1.4,2.5-1.6,3.8c-0.2,1.3-0.3,2.6-0.3,3.8c7.1-1.1,17-3.1,28.7-7
		c0-12.6-0.7-23.4-1.9-32.4C109.2,16.2,94.8,7.6,84.9,6.5c-0.8-0.1-1.5-0.1-2.3-0.1c-4.5,0-7.6,1.4-7.6,1.4s-3.1-1.4-7.6-1.4
		c-11.9,0-33.5,9.8-33.5,81.4c11.8,3.9,21.6,6,28.7,7c0-1.3-0.1-2.6-0.3-3.9c-0.2-1.3-0.8-2.5-1.6-3.7L59.8,86
		C55,80.5,52.4,72.5,51,62.7l0.1,0c1.1-0.4,2.2-0.9,3.3-1.4c26.8-11.9,32.9-32.9,32.9-32.9s7.1,11.9,12.1,23.4l0.5,1.1l0,0.1
		c-0.9,14.4-3.5,25.9-9.7,33.1L89.3,87.3z"/>
	<path id="XMLID_252_" class="st0" d="M100.2,109.6c-0.8,13.3-11.7,23.8-25.2,23.8c-13.5,0-24.4-10.5-25.2-23.8
		c-10.4,1.8-26,5.1-31.3,9.6c-8.2,7.1-9.4,24.3-9.4,24.3h131.7c0,0-1.2-17.3-9.4-24.3C126.1,114.7,110.6,111.4,100.2,109.6"/>
	<path id="XMLID_246_" class="st1" d="M75,128.4c10.6,0,19.5-8.4,20.1-19.1l0-0.5c-3-0.5-5-0.7-5-0.7s-2.8-6.3-2.8-13.2
		c0-1.3,0.1-2.6,0.3-3.8c0.2-1.3,0.8-2.5,1.6-3.8l0.9-1.3c6.3-7.2,8.9-18.7,9.7-33.1l0-0.1l-0.5-1.1c-5-11.5-12.1-23.4-12.1-23.4
		s-6.2,21-32.9,32.9c-1.1,0.5-2.1,0.9-3.3,1.4l-0.1,0c1.4,9.8,4,17.8,8.8,23.3l0.9,1.3c0.8,1.2,1.4,2.4,1.6,3.7
		c0.2,1.3,0.3,2.6,0.3,3.9c0,7-2.8,13.2-2.8,13.2s-1.9,0.2-5,0.7l0,0.5C55.5,120,64.4,128.4,75,128.4z"/>
</g>
</svg>
