<?xml version="1.0" encoding="utf-8"?>
<!-- Generator: Adobe Illustrator 19.0.0, SVG Export Plug-In . SVG Version: 6.00 Build 0)  -->
<svg version="1.1" id="Capa_1" xmlns="http://www.w3.org/2000/svg" xmlns:xlink="http://www.w3.org/1999/xlink" x="0px" y="0px"
	 viewBox="0 0 137 28.5" style="enable-background:new 0 0 137 28.5;" xml:space="preserve">
<style type="text/css">
	.st0{fill:#F2C244;}
	.st1{fill:#CACACA;}
	.st2{fill:#FFFFFF;}
</style>
<g id="XMLID_111_">
	<g id="XMLID_221_">
		<path id="XMLID_222_" class="st0" d="M9,6.1c1,0,1.7-0.8,1.7-1.7c0-1-0.8-1.7-1.7-1.7c-1,0-1.7,0.8-1.7,1.7C7.2,5.3,8,6.1,9,6.1z
			 M13,8.4c0-0.9-0.7-1.6-1.6-1.6H6.5c-0.9,0-1.6,0.7-1.6,1.6l0,6.4c0,0.4,0.3,0.7,0.7,0.7c0.4,0,0.7-0.3,0.7-0.7V8.9h0.3v15.7
			c0,0.6,0.5,1,1,1c0.6,0,1-0.5,1-1V16h0.6v8.6c0,0.6,0.5,1,1,1c0.6,0,1-0.5,1-1V8.9h0.3v5.8c0,0.4,0.3,0.7,0.7,0.7
			c0.4,0,0.7-0.3,0.7-0.7L13,8.4z"/>
	</g>
	<g id="XMLID_217_">
		<path id="XMLID_218_" class="st0" d="M22.2,6.1c1,0,1.7-0.8,1.7-1.7c0-1-0.8-1.7-1.7-1.7c-1,0-1.7,0.8-1.7,1.7
			C20.5,5.3,21.3,6.1,22.2,6.1z M26.2,8.4c0-0.9-0.7-1.6-1.6-1.6h-4.9c-0.9,0-1.6,0.7-1.6,1.6l0,6.4c0,0.4,0.3,0.7,0.7,0.7
			c0.4,0,0.7-0.3,0.7-0.7V8.9h0.3v15.7c0,0.6,0.5,1,1,1c0.6,0,1-0.5,1-1V16h0.6v8.6c0,0.6,0.5,1,1,1c0.6,0,1-0.5,1-1V8.9h0.3v5.8
			c0,0.4,0.3,0.7,0.7,0.7c0.4,0,0.7-0.3,0.7-0.7L26.2,8.4z"/>
	</g>
	<g id="XMLID_213_">
		<path id="XMLID_214_" class="st0" d="M35.5,6.1c1,0,1.7-0.8,1.7-1.7c0-1-0.8-1.7-1.7-1.7c-1,0-1.7,0.8-1.7,1.7
			C33.7,5.3,34.5,6.1,35.5,6.1z M39.4,8.4c0-0.9-0.7-1.6-1.6-1.6H33c-0.9,0-1.6,0.7-1.6,1.6l0,6.4c0,0.4,0.3,0.7,0.7,0.7
			c0.4,0,0.7-0.3,0.7-0.7V8.9h0.3v15.7c0,0.6,0.5,1,1,1c0.6,0,1-0.5,1-1V16h0.6v8.6c0,0.6,0.5,1,1,1c0.6,0,1-0.5,1-1V8.9h0.3v5.8
			c0,0.4,0.3,0.7,0.7,0.7c0.4,0,0.7-0.3,0.7-0.7L39.4,8.4z"/>
	</g>
	<g id="XMLID_209_">
		<path id="XMLID_210_" class="st0" d="M48.7,6.1c1,0,1.7-0.8,1.7-1.7c0-1-0.8-1.7-1.7-1.7c-1,0-1.7,0.8-1.7,1.7
			C47,5.3,47.7,6.1,48.7,6.1z M52.7,8.4c0-0.9-0.7-1.6-1.6-1.6h-4.9c-0.9,0-1.6,0.7-1.6,1.6l0,6.4c0,0.4,0.3,0.7,0.7,0.7
			c0.4,0,0.7-0.3,0.7-0.7V8.9h0.3v15.7c0,0.6,0.5,1,1,1c0.6,0,1-0.5,1-1V16h0.6v8.6c0,0.6,0.5,1,1,1c0.6,0,1-0.5,1-1V8.9h0.3v5.8
			c0,0.4,0.3,0.7,0.7,0.7c0.4,0,0.7-0.3,0.7-0.7L52.7,8.4z"/>
	</g>
	<g id="XMLID_205_">
		<path id="XMLID_206_" class="st0" d="M62,6.1c1,0,1.7-0.8,1.7-1.7c0-1-0.8-1.7-1.7-1.7c-1,0-1.7,0.8-1.7,1.7
			C60.2,5.3,61,6.1,62,6.1z M65.9,8.4c0-0.9-0.7-1.6-1.6-1.6h-4.9c-0.9,0-1.6,0.7-1.6,1.6l0,6.4c0,0.4,0.3,0.7,0.7,0.7
			c0.4,0,0.7-0.3,0.7-0.7V8.9h0.3v15.7c0,0.6,0.5,1,1,1c0.6,0,1-0.5,1-1V16h0.6v8.6c0,0.6,0.5,1,1,1c0.6,0,1-0.5,1-1V8.9h0.3v5.8
			c0,0.4,0.3,0.7,0.7,0.7c0.4,0,0.7-0.3,0.7-0.7L65.9,8.4z"/>
	</g>
	<g id="XMLID_201_">
		<path id="XMLID_202_" class="st0" d="M75.2,6.1c1,0,1.7-0.8,1.7-1.7c0-1-0.8-1.7-1.7-1.7c-1,0-1.7,0.8-1.7,1.7
			C73.5,5.3,74.2,6.1,75.2,6.1z M79.2,8.4c0-0.9-0.7-1.6-1.6-1.6h-4.9c-0.9,0-1.6,0.7-1.6,1.6l0,6.4c0,0.4,0.3,0.7,0.7,0.7
			c0.4,0,0.7-0.3,0.7-0.7V8.9h0.3v15.7c0,0.6,0.5,1,1,1c0.6,0,1-0.5,1-1V16h0.6v8.6c0,0.6,0.5,1,1,1c0.6,0,1-0.5,1-1V8.9h0.3v5.8
			c0,0.4,0.3,0.7,0.7,0.7c0.4,0,0.7-0.3,0.7-0.7L79.2,8.4z"/>
	</g>
	<g id="XMLID_197_">
		<path id="XMLID_198_" class="st0" d="M88.4,6.1c1,0,1.7-0.8,1.7-1.7c0-1-0.8-1.7-1.7-1.7c-1,0-1.7,0.8-1.7,1.7
			C86.7,5.3,87.5,6.1,88.4,6.1z M92.4,8.4c0-0.9-0.7-1.6-1.6-1.6h-4.9c-0.9,0-1.6,0.7-1.6,1.6l0,6.4c0,0.4,0.3,0.7,0.7,0.7
			c0.4,0,0.7-0.3,0.7-0.7V8.9H86v15.7c0,0.6,0.5,1,1,1c0.6,0,1-0.5,1-1V16h0.6v8.6c0,0.6,0.5,1,1,1c0.6,0,1-0.5,1-1V8.9H91v5.8
			c0,0.4,0.3,0.7,0.7,0.7c0.4,0,0.7-0.3,0.7-0.7L92.4,8.4z"/>
	</g>
	<g id="XMLID_133_">
		<path id="XMLID_162_" class="st0" d="M101.7,2.6c-1,0-1.7,0.8-1.7,1.7c0,1,0.8,1.7,1.7,1.7c0.3,0,0.5-0.1,0.8-0.2V2.8
			C102.2,2.7,102,2.6,101.7,2.6z"/>
		<path id="XMLID_169_" class="st0" d="M99.2,6.8c-0.9,0-1.6,0.7-1.6,1.6l0,6.4c0,0.4,0.3,0.7,0.7,0.7c0.4,0,0.7-0.3,0.7-0.7V8.9
			h0.3v15.7c0,0.6,0.5,1,1,1c0.6,0,1-0.5,1-1V16h0.6v8.6c0,0.4,0.2,0.7,0.5,0.9V6.8H99.2z"/>
		<path id="XMLID_170_" class="st1" d="M103.4,4.4c0-0.7-0.4-1.3-1-1.6v3.1C103,5.6,103.4,5.1,103.4,4.4z"/>
		<path id="XMLID_184_" class="st1" d="M105.7,8.4c0-0.9-0.7-1.6-1.6-1.6h-1.6v18.7c0.2,0.1,0.3,0.1,0.5,0.1c0.6,0,1-0.5,1-1V8.9
			h0.3v5.8c0,0.4,0.3,0.7,0.7,0.7c0.4,0,0.7-0.3,0.7-0.7L105.7,8.4z"/>
	</g>
	<g id="XMLID_189_">
		<path id="XMLID_190_" class="st1" d="M114.9,6.1c1,0,1.7-0.8,1.7-1.7c0-1-0.8-1.7-1.7-1.7c-1,0-1.7,0.8-1.7,1.7
			C113.2,5.3,114,6.1,114.9,6.1z M118.9,8.4c0-0.9-0.7-1.6-1.6-1.6h-4.9c-0.9,0-1.6,0.7-1.6,1.6l0,6.4c0,0.4,0.3,0.7,0.7,0.7
			c0.4,0,0.7-0.3,0.7-0.7V8.9h0.3v15.7c0,0.6,0.5,1,1,1c0.6,0,1-0.5,1-1V16h0.6v8.6c0,0.6,0.5,1,1,1c0.6,0,1-0.5,1-1V8.9h0.3v5.8
			c0,0.4,0.3,0.7,0.7,0.7c0.4,0,0.7-0.3,0.7-0.7L118.9,8.4z"/>
	</g>
	<g id="XMLID_185_">
		<path id="XMLID_186_" class="st1" d="M128.2,6.1c1,0,1.7-0.8,1.7-1.7c0-1-0.8-1.7-1.7-1.7c-1,0-1.7,0.8-1.7,1.7
			C126.4,5.3,127.2,6.1,128.2,6.1z M132.1,8.4c0-0.9-0.7-1.6-1.6-1.6h-4.9c-0.9,0-1.6,0.7-1.6,1.6l0,6.4c0,0.4,0.3,0.7,0.7,0.7
			c0.4,0,0.7-0.3,0.7-0.7V8.9h0.3v15.7c0,0.6,0.5,1,1,1c0.6,0,1-0.5,1-1V16h0.6v8.6c0,0.6,0.5,1,1,1c0.6,0,1-0.5,1-1V8.9h0.3v5.8
			c0,0.4,0.3,0.7,0.7,0.7c0.4,0,0.7-0.3,0.7-0.7L132.1,8.4z"/>
	</g>
</g>
<rect id="XMLID_132_" y="11.4" class="st2" width="137" height="9.2"/>
</svg>
